<svg width="40" height="40" viewBox="0 0 40 40" fill="none" xmlns="http://www.w3.org/2000/svg">
<path d="M6.66683 33.3332C5.75016 33.3332 4.96572 33.0071 4.3135 32.3548C3.66127 31.7026 3.33461 30.9176 3.3335 29.9998V9.99984C3.3335 9.08317 3.66016 8.29873 4.3135 7.6465C4.96683 6.99428 5.75127 6.66762 6.66683 6.6665H33.3335C34.2502 6.6665 35.0352 6.99317 35.6885 7.6465C36.3418 8.29984 36.6679 9.08428 36.6668 9.99984V29.9998C36.6668 30.9165 36.3407 31.7015 35.6885 32.3548C35.0363 33.0082 34.2513 33.3343 33.3335 33.3332H6.66683ZM20.0002 21.3748C20.1391 21.3748 20.2852 21.3537 20.4385 21.3115C20.5918 21.2693 20.7374 21.2071 20.8752 21.1248L32.6668 13.7498C32.8891 13.6109 33.0557 13.4376 33.1668 13.2298C33.2779 13.0221 33.3335 12.7926 33.3335 12.5415C33.3335 11.9859 33.0974 11.5693 32.6252 11.2915C32.1529 11.0137 31.6668 11.0276 31.1668 11.3332L20.0002 18.3332L8.8335 11.3332C8.3335 11.0276 7.84739 11.0209 7.37516 11.3132C6.90294 11.6054 6.66683 12.0148 6.66683 12.5415C6.66683 12.8193 6.72239 13.0626 6.8335 13.2715C6.94461 13.4804 7.11127 13.6398 7.3335 13.7498L19.1252 21.1248C19.2641 21.2082 19.4102 21.2709 19.5635 21.3132C19.7168 21.3554 19.8624 21.3759 20.0002 21.3748Z" fill="white"/>
</svg>
