<svg width="40" height="40" viewBox="0 0 40 40" fill="none" xmlns="http://www.w3.org/2000/svg">
<path d="M27.5931 21.5101L26.8348 22.2651C26.8348 22.2651 25.0298 24.0585 20.1048 19.1618C15.1798 14.2651 16.9848 12.4718 16.9848 12.4718L17.4615 11.9951C18.6398 10.8251 18.7515 8.94513 17.7231 7.5718L15.6231 4.7668C14.3498 3.0668 11.8915 2.8418 10.4331 4.2918L7.81647 6.8918C7.0948 7.6118 6.61147 8.54179 6.6698 9.57513C6.8198 12.2201 8.01647 17.9085 14.6898 24.5451C21.7681 31.5818 28.4098 31.8618 31.1248 31.6085C31.9848 31.5285 32.7315 31.0918 33.3331 30.4918L35.6998 28.1385C37.2998 26.5501 36.8498 23.8251 34.8031 22.7135L31.6198 20.9818C30.2765 20.2535 28.6431 20.4668 27.5931 21.5101Z" fill="white"/>
</svg>
